<svg xmlns="http://www.w3.org/2000/svg" width="16" height="14.222" viewBox="0 0 16 14.222"><defs><style>.a{fill:#333;}</style></defs><path class="a" d="M15.819,12.222a1.334,1.334,0,0,1-1.155,2H1.335a1.334,1.334,0,0,1-1.155-2L6.845.666a1.334,1.334,0,0,1,2.31,0l6.665,11.556ZM8,9.833a1.278,1.278,0,1,0,1.278,1.278A1.278,1.278,0,0,0,8,9.833ZM6.786,5.24l.206,3.778a.333.333,0,0,0,.333.315H8.674a.333.333,0,0,0,.333-.315L9.213,5.24a.333.333,0,0,0-.333-.351H7.119a.333.333,0,0,0-.333.351Z" transform="translate(0)"/></svg>