<svg xmlns="http://www.w3.org/2000/svg" width="12" height="12" viewBox="0 0 12 12"><defs><style>.a{fill:#e60000;}</style></defs><path class="a" d="M14,8a6,6,0,1,0,6,6A6,6,0,0,0,14,8Zm2.942,7.575a.291.291,0,0,1,0,.411l-.958.956a.291.291,0,0,1-.411,0L14,15.355l-1.575,1.587a.291.291,0,0,1-.411,0l-.956-.958a.291.291,0,0,1,0-.411L12.645,14l-1.587-1.575a.291.291,0,0,1,0-.411l.958-.958a.291.291,0,0,1,.411,0L14,12.645l1.575-1.587a.291.291,0,0,1,.411,0l.958.958a.291.291,0,0,1,0,.411L15.355,14Z" transform="translate(-8 -8)"/></svg>